<svg width="64" height="64" viewBox="0 0 64 64" fill="none" xmlns="http://www.w3.org/2000/svg">
<path d="M8 32C8 37.5525 9.92527 42.9333 13.4478 47.2254C16.9702 51.5176 21.872 54.4556 27.3178 55.5388C32.7637 56.6221 38.4166 55.7836 43.3135 53.1661C48.2104 50.5487 52.0482 46.3143 54.1731 41.1844C56.298 36.0545 56.5784 30.3466 54.9666 25.0332C53.3548 19.7197 49.9504 15.1295 45.3337 12.0447C40.7169 8.95991 35.1734 7.57132 29.6476 8.11556C24.1218 8.65981 18.9557 11.1032 15.0294 15.0294" stroke="white" stroke-width="4" stroke-linecap="round"/>
<path d="M15.0372 5.51752C16.1041 5.80339 16.7372 6.9001 16.4514 7.96701L14.7565 14.2927L20.5935 15.8567C21.6604 16.1426 22.2936 17.2393 22.0077 18.3062C21.7218 19.3731 20.6252 20.0063 19.5582 19.7204L11.8308 17.6499C10.7639 17.364 10.1307 16.2673 10.4166 15.2004C10.4266 15.163 10.4401 15.1269 10.4521 15.0906C10.4584 14.9477 10.4786 14.803 10.5172 14.6591L12.5877 6.93173C12.8736 5.86498 13.9704 5.23191 15.0372 5.51752Z" fill="white"/>
<path d="M38 45L30.5367 32.8721C30.1997 32.3245 30.1466 31.6483 30.3939 31.0547L35 20" stroke="white" stroke-width="4" stroke-linecap="round"/>
</svg>
