<svg width="64" height="64" viewBox="0 0 64 64" fill="none" xmlns="http://www.w3.org/2000/svg">
<rect x="4" y="30" width="24" height="4" rx="2" fill="white"/>
<path d="M54 4C57.3137 4 60 6.68629 60 10V54L59.9922 54.3086C59.8367 57.3767 57.3767 59.8367 54.3086 59.9922L54 60H26L25.6914 59.9922C22.6233 59.8367 20.1633 57.3767 20.0078 54.3086L20 54V47.1553L24 43.1553V54C24 55.1046 24.8954 56 26 56H54C55.1046 56 56 55.1046 56 54V10C56 8.89543 55.1046 8 54 8H26C24.8954 8 24 8.89543 24 10V20.8281L20 16.8281V10C20 6.68629 22.6863 4 26 4H54Z" fill="white"/>
<path d="M27.9997 47.0002C27.9997 45.8956 28.8956 44.9997 30.0001 44.9997L50.0001 45.0004C51.1046 45.0005 51.9999 45.8957 51.9999 47.0002C51.9998 48.1046 51.1045 48.9999 50.0001 49H29.9995C28.8952 48.9997 27.9998 48.1045 27.9997 47.0002ZM27.9997 36.9999C27.9997 35.8956 28.8952 35.0004 29.9995 35.0001H50.0001C51.1046 35.0001 51.9998 35.8954 51.9999 36.9999C51.9999 38.1044 51.1046 38.9996 50.0001 38.9997L30.0001 39.0004C28.8956 39.0004 27.9997 38.1045 27.9997 36.9999ZM28.0004 27.0003C28.0004 25.8957 28.8956 25.0005 30.0001 25.0005L50.0001 24.9998C51.1045 24.9998 51.9996 25.8952 51.9999 26.9996C51.9999 28.1041 51.104 29.0001 49.9994 29.0001L30.0001 29.0001C28.8957 29.0001 28.0005 28.1047 28.0004 27.0003ZM28.0004 17C28.0004 15.8954 28.8956 15.0002 30.0001 15.0002L50.0001 14.9995C51.1046 14.9995 52.0005 15.8954 52.0006 17C52.0006 18.1045 51.1046 19.0004 50.0001 19.0004L30.0001 18.9997C28.8956 18.9997 28.0004 18.1045 28.0004 17ZM19.0711 24.9142C19.8521 24.1331 21.1184 24.1331 21.8995 24.9142L27.5563 30.571C27.6051 30.6197 27.6504 30.6707 27.6931 30.7229C28.2914 31.4562 28.2914 32.5142 27.6931 33.2475L27.5563 33.3994L21.8995 39.0563C21.1184 39.8373 19.8521 39.8373 19.0711 39.0563C18.29 38.2752 18.29 37.0089 19.0711 36.2279L23.3137 31.9852L19.0711 27.7426C18.29 26.9615 18.29 25.6952 19.0711 24.9142Z" fill="white"/>
</svg>
