<svg width="64" height="64" viewBox="0 0 64 64" fill="none" xmlns="http://www.w3.org/2000/svg">
<path d="M27.2061 8.00488C28.9784 8.09481 30.4454 9.33876 30.873 11H35L35.3086 11.0078C38.4789 11.1684 41 13.7898 41 17V26.9199L51.2734 16.6465C52.2497 15.6702 53.8333 15.6702 54.8096 16.6465L57.6377 19.4746C58.614 20.4509 58.614 22.0344 57.6377 23.0107L41 39.6475V51L40.9922 51.3086C40.8367 54.3767 38.3767 56.8367 35.3086 56.9922L35 57H11C7.68629 57 5 54.3137 5 51V17C5 13.6863 7.68629 11 11 11H15.126C15.57 9.27477 17.1362 8 19 8H27L27.2061 8.00488ZM11 14C9.34315 14 8 15.3431 8 17V51C8 52.6569 9.34315 54 11 54H35C36.6569 54 38 52.6569 38 51V42.6475L36.6045 44.043L36.085 44.1035L32.5439 44.5098C30.945 44.6933 29.5909 43.3392 29.7744 41.7402L30.1416 38.5449C30.2061 37.9844 30.4584 37.4615 30.8574 37.0625L38 29.9199V17C38 15.3431 36.6569 14 35 14H30.874C30.43 15.7252 28.8638 17 27 17H19C17.1362 17 15.5701 15.7252 15.126 14H11ZM28 45.5C28.8284 45.5 29.5 46.1716 29.5 47C29.5 47.8284 28.8284 48.5 28 48.5H14C13.1716 48.5 12.5 47.8284 12.5 47C12.5 46.1716 13.1716 45.5 14 45.5H28ZM33.1025 39.0605L32.8271 41.4561L35.2236 41.1816L55.1631 21.2422L53.042 19.1211L33.1025 39.0605ZM26 37.5C26.8284 37.5 27.5 38.1716 27.5 39C27.5 39.8284 26.8284 40.5 26 40.5H14C13.1716 40.5 12.5 39.8284 12.5 39C12.5 38.1716 13.1716 37.5 14 37.5H26ZM32 29.5C32.8284 29.5 33.5 30.1716 33.5 31C33.5 31.8284 32.8284 32.5 32 32.5H14C13.1716 32.5 12.5 31.8284 12.5 31C12.5 30.1716 13.1716 29.5 14 29.5H32ZM32 21.5C32.8284 21.5 33.5 22.1716 33.5 23C33.5 23.8284 32.8284 24.5 32 24.5H14C13.1716 24.5 12.5 23.8284 12.5 23C12.5 22.1716 13.1716 21.5 14 21.5H32ZM19 11C18.4477 11 18 11.4477 18 12V13C18 13.5523 18.4477 14 19 14H27C27.5523 14 28 13.5523 28 13V12C28 11.4477 27.5523 11 27 11H19Z" fill="white"/>
</svg>
