<svg width="343" height="64" viewBox="0 0 343 64" fill="none" xmlns="http://www.w3.org/2000/svg">
<path d="M4.0625 55.5V8.9375H35.4375V17.0625H13.875V28H33.7812V35.9688H13.875V47.375H35.5V55.5H4.0625ZM52.4688 8.9375L61.8438 24.8125H62.2188L71.625 8.9375H82.75L68.5625 32.25L83.0938 55.5H71.75L62.2188 39.625H61.8438L52.2812 55.5H41.0625L55.5938 32.25L41.3125 8.9375H52.4688ZM89.0625 55.5V8.9375H107.375C110.917 8.9375 113.927 9.61458 116.406 10.9688C118.906 12.3229 120.812 14.1875 122.125 16.5625C123.438 18.9375 124.094 21.6667 124.094 24.75C124.094 27.8333 123.427 30.5521 122.094 32.9062C120.76 35.2604 118.833 37.1042 116.312 38.4375C113.792 39.75 110.74 40.4062 107.156 40.4062H98.875V55.5H89.0625ZM98.875 32.5312H105.531C108.385 32.5312 110.5 31.8125 111.875 30.375C113.271 28.9167 113.969 27.0417 113.969 24.75C113.969 22.4167 113.271 20.5417 111.875 19.125C110.479 17.7083 108.354 17 105.5 17H98.875V32.5312ZM130.5 55.5V8.9375H161.875V17.0625H140.312V28H160.219V35.9688H140.312V47.375H161.938V55.5H130.5ZM169.688 55.5V8.9375H179.5V47.375H199.469V55.5H169.688Z" fill="white"/>
<path d="M220.938 55.5V8.9375H239.25C242.792 8.9375 245.802 9.61458 248.281 10.9688C250.781 12.3229 252.688 14.1875 254 16.5625C255.312 18.9375 255.969 21.6667 255.969 24.75C255.969 27.8333 255.302 30.5521 253.969 32.9062C252.635 35.2604 250.708 37.1042 248.188 38.4375C245.667 39.75 242.615 40.4062 239.031 40.4062H230.75V55.5H220.938ZM230.75 32.5312H237.406C240.26 32.5312 242.375 31.8125 243.75 30.375C245.146 28.9167 245.844 27.0417 245.844 24.75C245.844 22.4167 245.146 20.5417 243.75 19.125C242.354 17.7083 240.229 17 237.375 17H230.75V32.5312ZM278.875 55.5H262.375V8.9375H279C283.688 8.9375 287.719 9.875 291.094 11.75C294.469 13.6042 297.062 16.2708 298.875 19.75C300.708 23.2083 301.625 27.3542 301.625 32.1875C301.625 37.0417 300.708 41.2083 298.875 44.6875C297.062 48.1667 294.458 50.8438 291.062 52.7188C287.667 54.5729 283.604 55.5 278.875 55.5ZM272.188 47.0625H278.438C282.833 47.0625 286.167 45.8854 288.438 43.5312C290.708 41.1771 291.844 37.3958 291.844 32.1875C291.844 27.0208 290.708 23.2604 288.438 20.9062C286.167 18.5521 282.833 17.375 278.438 17.375H272.188V47.0625ZM308.938 55.5V8.9375H339.75V17.0625H318.75V29.8438H337.688V37.8125H318.75V55.5H308.938Z" fill="#FF5B5B"/>
</svg>
